<mxfile host="app.diagrams.net" modified="2023-12-20T22:55:23.852Z" agent="Mozilla/5.0 (Windows NT 10.0; Win64; x64) AppleWebKit/537.36 (KHTML, like Gecko) Chrome/120.0.0.0 Safari/537.36 Edg/120.0.0.0" etag="2VRhB7RBJ_FyIo3ZTWrO" version="22.1.11" type="device">
  <diagram name="Trang-1" id="ZPBdf9TAOOup65Zuo36H">
    <mxGraphModel dx="3385" dy="1469" grid="1" gridSize="10" guides="1" tooltips="1" connect="1" arrows="1" fold="1" page="1" pageScale="1" pageWidth="827" pageHeight="1169" math="0" shadow="0">
      <root>
        <mxCell id="0" />
        <mxCell id="1" parent="0" />
        <mxCell id="f1EfRb5JokxbB5pJXTIM-219" style="edgeStyle=elbowEdgeStyle;rounded=0;orthogonalLoop=1;jettySize=auto;html=1;exitX=0.5;exitY=1;exitDx=0;exitDy=0;entryX=0;entryY=0.5;entryDx=0;entryDy=0;" edge="1" parent="1" source="f1EfRb5JokxbB5pJXTIM-24" target="f1EfRb5JokxbB5pJXTIM-61">
          <mxGeometry relative="1" as="geometry">
            <Array as="points">
              <mxPoint x="-350" y="330" />
            </Array>
          </mxGeometry>
        </mxCell>
        <mxCell id="f1EfRb5JokxbB5pJXTIM-24" value="BUTTON1" style="shape=offPageConnector;whiteSpace=wrap;html=1;direction=north;size=0.375;" vertex="1" parent="1">
          <mxGeometry x="-480" y="160" width="80" height="40" as="geometry" />
        </mxCell>
        <mxCell id="f1EfRb5JokxbB5pJXTIM-217" style="edgeStyle=elbowEdgeStyle;rounded=0;orthogonalLoop=1;jettySize=auto;html=1;exitX=0.5;exitY=1;exitDx=0;exitDy=0;entryX=0;entryY=0.5;entryDx=0;entryDy=0;" edge="1" parent="1" source="f1EfRb5JokxbB5pJXTIM-27" target="f1EfRb5JokxbB5pJXTIM-59">
          <mxGeometry relative="1" as="geometry">
            <Array as="points">
              <mxPoint x="-330" y="260" />
            </Array>
          </mxGeometry>
        </mxCell>
        <mxCell id="f1EfRb5JokxbB5pJXTIM-301" style="edgeStyle=elbowEdgeStyle;rounded=0;orthogonalLoop=1;jettySize=auto;html=1;exitX=0.5;exitY=1;exitDx=0;exitDy=0;entryX=0;entryY=0.5;entryDx=0;entryDy=0;" edge="1" parent="1" source="f1EfRb5JokxbB5pJXTIM-27" target="f1EfRb5JokxbB5pJXTIM-227">
          <mxGeometry relative="1" as="geometry">
            <Array as="points">
              <mxPoint x="-10" y="290" />
            </Array>
          </mxGeometry>
        </mxCell>
        <mxCell id="f1EfRb5JokxbB5pJXTIM-325" style="edgeStyle=elbowEdgeStyle;rounded=0;orthogonalLoop=1;jettySize=auto;html=1;exitX=0.5;exitY=1;exitDx=0;exitDy=0;entryX=0;entryY=0.5;entryDx=0;entryDy=0;" edge="1" parent="1" source="f1EfRb5JokxbB5pJXTIM-27" target="f1EfRb5JokxbB5pJXTIM-160">
          <mxGeometry relative="1" as="geometry">
            <Array as="points">
              <mxPoint x="300" y="290" />
            </Array>
          </mxGeometry>
        </mxCell>
        <mxCell id="f1EfRb5JokxbB5pJXTIM-326" style="edgeStyle=elbowEdgeStyle;rounded=0;orthogonalLoop=1;jettySize=auto;html=1;exitX=0.5;exitY=1;exitDx=0;exitDy=0;entryX=0;entryY=0.5;entryDx=0;entryDy=0;" edge="1" parent="1" source="f1EfRb5JokxbB5pJXTIM-27" target="f1EfRb5JokxbB5pJXTIM-102">
          <mxGeometry relative="1" as="geometry">
            <Array as="points">
              <mxPoint x="590" y="260" />
            </Array>
          </mxGeometry>
        </mxCell>
        <mxCell id="f1EfRb5JokxbB5pJXTIM-366" style="edgeStyle=elbowEdgeStyle;rounded=0;orthogonalLoop=1;jettySize=auto;html=1;exitDx=0;exitDy=0;entryX=0;entryY=0.5;entryDx=0;entryDy=0;" edge="1" parent="1" source="f1EfRb5JokxbB5pJXTIM-368" target="f1EfRb5JokxbB5pJXTIM-205">
          <mxGeometry relative="1" as="geometry">
            <mxPoint x="-330" y="100" as="sourcePoint" />
            <mxPoint x="-260" y="740.0000000000002" as="targetPoint" />
            <Array as="points">
              <mxPoint x="-330" y="420" />
            </Array>
          </mxGeometry>
        </mxCell>
        <mxCell id="f1EfRb5JokxbB5pJXTIM-373" style="edgeStyle=elbowEdgeStyle;rounded=0;orthogonalLoop=1;jettySize=auto;html=1;exitDx=0;exitDy=0;entryX=0;entryY=0.5;entryDx=0;entryDy=0;" edge="1" parent="1" source="f1EfRb5JokxbB5pJXTIM-388" target="f1EfRb5JokxbB5pJXTIM-233">
          <mxGeometry relative="1" as="geometry">
            <Array as="points" />
          </mxGeometry>
        </mxCell>
        <mxCell id="f1EfRb5JokxbB5pJXTIM-27" value="CLK" style="shape=offPageConnector;whiteSpace=wrap;html=1;direction=north;" vertex="1" parent="1">
          <mxGeometry x="-480" y="80" width="80" height="40" as="geometry" />
        </mxCell>
        <mxCell id="f1EfRb5JokxbB5pJXTIM-218" style="edgeStyle=elbowEdgeStyle;rounded=0;orthogonalLoop=1;jettySize=auto;html=1;exitX=0.5;exitY=1;exitDx=0;exitDy=0;entryX=0;entryY=0.5;entryDx=0;entryDy=0;" edge="1" parent="1" source="f1EfRb5JokxbB5pJXTIM-28" target="f1EfRb5JokxbB5pJXTIM-60">
          <mxGeometry relative="1" as="geometry">
            <Array as="points">
              <mxPoint x="-340" y="300" />
            </Array>
          </mxGeometry>
        </mxCell>
        <mxCell id="f1EfRb5JokxbB5pJXTIM-302" style="edgeStyle=elbowEdgeStyle;rounded=0;orthogonalLoop=1;jettySize=auto;html=1;exitX=0.5;exitY=1;exitDx=0;exitDy=0;entryX=0;entryY=0.5;entryDx=0;entryDy=0;" edge="1" parent="1" source="f1EfRb5JokxbB5pJXTIM-28" target="f1EfRb5JokxbB5pJXTIM-228">
          <mxGeometry relative="1" as="geometry">
            <Array as="points">
              <mxPoint x="-20" y="320" />
            </Array>
          </mxGeometry>
        </mxCell>
        <mxCell id="f1EfRb5JokxbB5pJXTIM-331" style="edgeStyle=elbowEdgeStyle;rounded=0;orthogonalLoop=1;jettySize=auto;html=1;exitX=0.5;exitY=1;exitDx=0;exitDy=0;entryX=0;entryY=0.5;entryDx=0;entryDy=0;" edge="1" parent="1" source="f1EfRb5JokxbB5pJXTIM-28" target="f1EfRb5JokxbB5pJXTIM-106">
          <mxGeometry relative="1" as="geometry">
            <Array as="points">
              <mxPoint x="580" y="300" />
            </Array>
          </mxGeometry>
        </mxCell>
        <mxCell id="f1EfRb5JokxbB5pJXTIM-374" style="edgeStyle=elbowEdgeStyle;rounded=0;orthogonalLoop=1;jettySize=auto;html=1;exitDx=0;exitDy=0;entryX=0;entryY=0.5;entryDx=0;entryDy=0;" edge="1" parent="1" source="f1EfRb5JokxbB5pJXTIM-384" target="f1EfRb5JokxbB5pJXTIM-232">
          <mxGeometry relative="1" as="geometry">
            <Array as="points">
              <mxPoint x="-340" y="520" />
            </Array>
          </mxGeometry>
        </mxCell>
        <mxCell id="f1EfRb5JokxbB5pJXTIM-28" value="RST" style="shape=offPageConnector;whiteSpace=wrap;html=1;direction=north;size=0.37500000000000283;" vertex="1" parent="1">
          <mxGeometry x="-480" y="120" width="80" height="40" as="geometry" />
        </mxCell>
        <mxCell id="f1EfRb5JokxbB5pJXTIM-29" value="[6:0] TRANS" style="shape=offPageConnector;whiteSpace=wrap;html=1;direction=south;verticalAlign=middle;size=0.125;" vertex="1" parent="1">
          <mxGeometry x="1240" y="120" width="80" height="40" as="geometry" />
        </mxCell>
        <mxCell id="f1EfRb5JokxbB5pJXTIM-30" value="[6:0] LED7SEG" style="shape=offPageConnector;whiteSpace=wrap;html=1;direction=south;size=0.125;" vertex="1" parent="1">
          <mxGeometry x="1240" y="160" width="80" height="40" as="geometry" />
        </mxCell>
        <mxCell id="f1EfRb5JokxbB5pJXTIM-31" value="[6:0] SINGLE_&lt;br style=&quot;border-color: var(--border-color);&quot;&gt;LED_SP" style="shape=offPageConnector;whiteSpace=wrap;html=1;direction=south;size=0.125;" vertex="1" parent="1">
          <mxGeometry x="1240" y="200" width="80" height="40" as="geometry" />
        </mxCell>
        <mxCell id="f1EfRb5JokxbB5pJXTIM-32" value="&lt;br&gt;&lt;span style=&quot;color: rgb(0, 0, 0); font-family: Helvetica; font-size: 12px; font-style: normal; font-variant-ligatures: normal; font-variant-caps: normal; font-weight: 400; letter-spacing: normal; orphans: 2; text-align: center; text-indent: 0px; text-transform: none; widows: 2; word-spacing: 0px; -webkit-text-stroke-width: 0px; background-color: rgb(251, 251, 251); text-decoration-thickness: initial; text-decoration-style: initial; text-decoration-color: initial; float: none; display: inline !important;&quot;&gt;[1:0] &lt;br&gt;LED_MODE&lt;/span&gt;&lt;br&gt;" style="shape=offPageConnector;whiteSpace=wrap;html=1;direction=south;size=0.125;verticalAlign=middle;" vertex="1" parent="1">
          <mxGeometry x="1240" y="80" width="80" height="40" as="geometry" />
        </mxCell>
        <mxCell id="f1EfRb5JokxbB5pJXTIM-46" style="edgeStyle=elbowEdgeStyle;rounded=0;orthogonalLoop=1;jettySize=auto;html=1;exitDx=0;exitDy=0;entryX=0;entryY=0.5;entryDx=0;entryDy=0;" edge="1" parent="1" source="f1EfRb5JokxbB5pJXTIM-330" target="f1EfRb5JokxbB5pJXTIM-55">
          <mxGeometry relative="1" as="geometry">
            <Array as="points" />
          </mxGeometry>
        </mxCell>
        <mxCell id="f1EfRb5JokxbB5pJXTIM-49" style="edgeStyle=elbowEdgeStyle;rounded=0;orthogonalLoop=1;jettySize=auto;html=1;exitDx=0;exitDy=0;entryX=0;entryY=0.5;entryDx=0;entryDy=0;" edge="1" parent="1" source="f1EfRb5JokxbB5pJXTIM-333" target="f1EfRb5JokxbB5pJXTIM-57">
          <mxGeometry relative="1" as="geometry">
            <Array as="points" />
          </mxGeometry>
        </mxCell>
        <mxCell id="f1EfRb5JokxbB5pJXTIM-50" style="edgeStyle=elbowEdgeStyle;rounded=0;orthogonalLoop=1;jettySize=auto;html=1;exitDx=0;exitDy=0;entryX=0;entryY=0.5;entryDx=0;entryDy=0;" edge="1" parent="1" source="f1EfRb5JokxbB5pJXTIM-313" target="f1EfRb5JokxbB5pJXTIM-58">
          <mxGeometry relative="1" as="geometry">
            <Array as="points">
              <mxPoint x="180" y="190" />
            </Array>
          </mxGeometry>
        </mxCell>
        <mxCell id="f1EfRb5JokxbB5pJXTIM-82" value="" style="edgeStyle=elbowEdgeStyle;rounded=0;orthogonalLoop=1;jettySize=auto;html=1;" edge="1" parent="1" source="f1EfRb5JokxbB5pJXTIM-67" target="f1EfRb5JokxbB5pJXTIM-78">
          <mxGeometry relative="1" as="geometry">
            <Array as="points">
              <mxPoint x="210" y="220" />
            </Array>
          </mxGeometry>
        </mxCell>
        <mxCell id="f1EfRb5JokxbB5pJXTIM-305" style="edgeStyle=elbowEdgeStyle;rounded=0;orthogonalLoop=1;jettySize=auto;html=1;exitX=0.5;exitY=1;exitDx=0;exitDy=0;entryX=0;entryY=0.5;entryDx=0;entryDy=0;" edge="1" parent="1" source="f1EfRb5JokxbB5pJXTIM-67" target="f1EfRb5JokxbB5pJXTIM-240">
          <mxGeometry relative="1" as="geometry">
            <Array as="points">
              <mxPoint x="-30" y="400" />
            </Array>
          </mxGeometry>
        </mxCell>
        <mxCell id="f1EfRb5JokxbB5pJXTIM-334" style="edgeStyle=elbowEdgeStyle;rounded=0;orthogonalLoop=1;jettySize=auto;html=1;exitDx=0;exitDy=0;entryX=0;entryY=0.5;entryDx=0;entryDy=0;" edge="1" parent="1" source="f1EfRb5JokxbB5pJXTIM-339" target="f1EfRb5JokxbB5pJXTIM-109">
          <mxGeometry relative="1" as="geometry">
            <Array as="points">
              <mxPoint x="570" y="390" />
            </Array>
          </mxGeometry>
        </mxCell>
        <mxCell id="f1EfRb5JokxbB5pJXTIM-67" value="BUTTON2" style="shape=offPageConnector;whiteSpace=wrap;html=1;direction=north;" vertex="1" parent="1">
          <mxGeometry x="-480" y="200" width="80" height="40" as="geometry" />
        </mxCell>
        <mxCell id="f1EfRb5JokxbB5pJXTIM-83" style="edgeStyle=elbowEdgeStyle;rounded=0;orthogonalLoop=1;jettySize=auto;html=1;exitX=0.5;exitY=1;exitDx=0;exitDy=0;entryX=0;entryY=0.5;entryDx=0;entryDy=0;" edge="1" parent="1" source="f1EfRb5JokxbB5pJXTIM-68" target="f1EfRb5JokxbB5pJXTIM-79">
          <mxGeometry relative="1" as="geometry">
            <Array as="points">
              <mxPoint x="200" y="250" />
            </Array>
          </mxGeometry>
        </mxCell>
        <mxCell id="f1EfRb5JokxbB5pJXTIM-221" style="edgeStyle=elbowEdgeStyle;rounded=0;orthogonalLoop=1;jettySize=auto;html=1;exitX=0.5;exitY=1;exitDx=0;exitDy=0;entryX=0;entryY=0.5;entryDx=0;entryDy=0;" edge="1" parent="1" source="f1EfRb5JokxbB5pJXTIM-68" target="f1EfRb5JokxbB5pJXTIM-61">
          <mxGeometry relative="1" as="geometry">
            <Array as="points">
              <mxPoint x="-360" y="380" />
            </Array>
          </mxGeometry>
        </mxCell>
        <mxCell id="f1EfRb5JokxbB5pJXTIM-306" style="edgeStyle=elbowEdgeStyle;rounded=0;orthogonalLoop=1;jettySize=auto;html=1;exitDx=0;exitDy=0;entryX=0;entryY=0.5;entryDx=0;entryDy=0;" edge="1" parent="1" source="f1EfRb5JokxbB5pJXTIM-321" target="f1EfRb5JokxbB5pJXTIM-241">
          <mxGeometry relative="1" as="geometry">
            <Array as="points">
              <mxPoint x="-40" y="440" />
            </Array>
          </mxGeometry>
        </mxCell>
        <mxCell id="f1EfRb5JokxbB5pJXTIM-335" style="edgeStyle=elbowEdgeStyle;rounded=0;orthogonalLoop=1;jettySize=auto;html=1;exitDx=0;exitDy=0;entryX=0;entryY=0.5;entryDx=0;entryDy=0;" edge="1" parent="1" source="f1EfRb5JokxbB5pJXTIM-341" target="f1EfRb5JokxbB5pJXTIM-110">
          <mxGeometry relative="1" as="geometry">
            <Array as="points">
              <mxPoint x="560" y="440" />
            </Array>
          </mxGeometry>
        </mxCell>
        <mxCell id="f1EfRb5JokxbB5pJXTIM-68" value="BUTTON3" style="shape=offPageConnector;whiteSpace=wrap;html=1;direction=north;" vertex="1" parent="1">
          <mxGeometry x="-480" y="240" width="80" height="40" as="geometry" />
        </mxCell>
        <mxCell id="f1EfRb5JokxbB5pJXTIM-213" style="edgeStyle=elbowEdgeStyle;rounded=0;orthogonalLoop=1;jettySize=auto;html=1;exitX=0.5;exitY=1;exitDx=0;exitDy=0;entryX=0;entryY=0.5;entryDx=0;entryDy=0;" edge="1" parent="1" source="f1EfRb5JokxbB5pJXTIM-70" target="f1EfRb5JokxbB5pJXTIM-81">
          <mxGeometry relative="1" as="geometry" />
        </mxCell>
        <mxCell id="f1EfRb5JokxbB5pJXTIM-337" style="edgeStyle=elbowEdgeStyle;rounded=0;orthogonalLoop=1;jettySize=auto;html=1;exitDx=0;exitDy=0;entryX=0;entryY=0.5;entryDx=0;entryDy=0;" edge="1" parent="1" source="f1EfRb5JokxbB5pJXTIM-345" target="f1EfRb5JokxbB5pJXTIM-239">
          <mxGeometry relative="1" as="geometry">
            <Array as="points">
              <mxPoint x="540" y="510" />
            </Array>
          </mxGeometry>
        </mxCell>
        <mxCell id="f1EfRb5JokxbB5pJXTIM-385" style="edgeStyle=elbowEdgeStyle;rounded=0;orthogonalLoop=1;jettySize=auto;html=1;exitX=0.5;exitY=1;exitDx=0;exitDy=0;entryX=0;entryY=0.5;entryDx=0;entryDy=0;" edge="1" parent="1" source="f1EfRb5JokxbB5pJXTIM-70" target="f1EfRb5JokxbB5pJXTIM-234">
          <mxGeometry relative="1" as="geometry">
            <Array as="points">
              <mxPoint x="-380" y="500" />
            </Array>
          </mxGeometry>
        </mxCell>
        <mxCell id="f1EfRb5JokxbB5pJXTIM-70" value="[6:0] SWITCH" style="shape=offPageConnector;whiteSpace=wrap;html=1;direction=north;" vertex="1" parent="1">
          <mxGeometry x="-480" y="320" width="80" height="40" as="geometry" />
        </mxCell>
        <mxCell id="f1EfRb5JokxbB5pJXTIM-72" value="main.v" style="swimlane;whiteSpace=wrap;html=1;" vertex="1" parent="1">
          <mxGeometry x="840" y="50" width="180" height="320" as="geometry">
            <mxRectangle x="135" y="70" width="140" height="30" as="alternateBounds" />
          </mxGeometry>
        </mxCell>
        <mxCell id="f1EfRb5JokxbB5pJXTIM-55" value="CLK" style="rounded=0;whiteSpace=wrap;html=1;" vertex="1" parent="f1EfRb5JokxbB5pJXTIM-72">
          <mxGeometry x="10" y="30" width="80" height="40" as="geometry" />
        </mxCell>
        <mxCell id="f1EfRb5JokxbB5pJXTIM-57" value="RST" style="rounded=0;whiteSpace=wrap;html=1;" vertex="1" parent="f1EfRb5JokxbB5pJXTIM-72">
          <mxGeometry x="10" y="70" width="80" height="40" as="geometry" />
        </mxCell>
        <mxCell id="f1EfRb5JokxbB5pJXTIM-58" value="BTUTTON1" style="rounded=0;whiteSpace=wrap;html=1;" vertex="1" parent="f1EfRb5JokxbB5pJXTIM-72">
          <mxGeometry x="10" y="110" width="80" height="40" as="geometry" />
        </mxCell>
        <mxCell id="f1EfRb5JokxbB5pJXTIM-78" value="BUTTON2" style="rounded=0;whiteSpace=wrap;html=1;" vertex="1" parent="f1EfRb5JokxbB5pJXTIM-72">
          <mxGeometry x="10" y="150" width="80" height="40" as="geometry" />
        </mxCell>
        <mxCell id="f1EfRb5JokxbB5pJXTIM-79" value="BUTTON3" style="rounded=0;whiteSpace=wrap;html=1;" vertex="1" parent="f1EfRb5JokxbB5pJXTIM-72">
          <mxGeometry x="10" y="190" width="80" height="40" as="geometry" />
        </mxCell>
        <mxCell id="f1EfRb5JokxbB5pJXTIM-80" value="BUTTON4" style="rounded=0;whiteSpace=wrap;html=1;" vertex="1" parent="f1EfRb5JokxbB5pJXTIM-72">
          <mxGeometry x="10" y="230" width="80" height="40" as="geometry" />
        </mxCell>
        <mxCell id="f1EfRb5JokxbB5pJXTIM-81" value="[6:0] SWITCH" style="rounded=0;whiteSpace=wrap;html=1;" vertex="1" parent="f1EfRb5JokxbB5pJXTIM-72">
          <mxGeometry x="10" y="270" width="80" height="40" as="geometry" />
        </mxCell>
        <mxCell id="f1EfRb5JokxbB5pJXTIM-87" value="[6:0] &lt;br&gt;TRANS" style="rounded=0;whiteSpace=wrap;html=1;" vertex="1" parent="f1EfRb5JokxbB5pJXTIM-72">
          <mxGeometry x="100" y="30" width="80" height="40" as="geometry" />
        </mxCell>
        <mxCell id="f1EfRb5JokxbB5pJXTIM-88" value="[6:0]&lt;br&gt;LED7SEG" style="rounded=0;whiteSpace=wrap;html=1;" vertex="1" parent="f1EfRb5JokxbB5pJXTIM-72">
          <mxGeometry x="100" y="70" width="80" height="40" as="geometry" />
        </mxCell>
        <mxCell id="f1EfRb5JokxbB5pJXTIM-89" value="[1:0] LED_MODE" style="rounded=0;whiteSpace=wrap;html=1;" vertex="1" parent="f1EfRb5JokxbB5pJXTIM-72">
          <mxGeometry x="100" y="110" width="80" height="40" as="geometry" />
        </mxCell>
        <mxCell id="f1EfRb5JokxbB5pJXTIM-90" value="[6:0]&lt;br&gt;SINGLE_&lt;br&gt;LED_SP" style="rounded=0;whiteSpace=wrap;html=1;" vertex="1" parent="f1EfRb5JokxbB5pJXTIM-72">
          <mxGeometry x="100" y="150" width="80" height="40" as="geometry" />
        </mxCell>
        <mxCell id="f1EfRb5JokxbB5pJXTIM-92" style="edgeStyle=elbowEdgeStyle;rounded=0;orthogonalLoop=1;jettySize=auto;html=1;exitX=0.75;exitY=1;exitDx=0;exitDy=0;" edge="1" parent="f1EfRb5JokxbB5pJXTIM-72" source="f1EfRb5JokxbB5pJXTIM-89" target="f1EfRb5JokxbB5pJXTIM-89">
          <mxGeometry relative="1" as="geometry" />
        </mxCell>
        <mxCell id="f1EfRb5JokxbB5pJXTIM-84" style="edgeStyle=elbowEdgeStyle;rounded=0;orthogonalLoop=1;jettySize=auto;html=1;exitX=0.5;exitY=1;exitDx=0;exitDy=0;entryX=0;entryY=0.5;entryDx=0;entryDy=0;" edge="1" parent="1" source="f1EfRb5JokxbB5pJXTIM-76" target="f1EfRb5JokxbB5pJXTIM-80">
          <mxGeometry relative="1" as="geometry">
            <Array as="points">
              <mxPoint x="200" y="310" />
            </Array>
          </mxGeometry>
        </mxCell>
        <mxCell id="f1EfRb5JokxbB5pJXTIM-222" style="edgeStyle=elbowEdgeStyle;rounded=0;orthogonalLoop=1;jettySize=auto;html=1;exitX=0.5;exitY=1;exitDx=0;exitDy=0;" edge="1" parent="1" source="f1EfRb5JokxbB5pJXTIM-76" target="f1EfRb5JokxbB5pJXTIM-61">
          <mxGeometry relative="1" as="geometry">
            <Array as="points">
              <mxPoint x="-370" y="400" />
            </Array>
          </mxGeometry>
        </mxCell>
        <mxCell id="f1EfRb5JokxbB5pJXTIM-307" style="edgeStyle=elbowEdgeStyle;rounded=0;orthogonalLoop=1;jettySize=auto;html=1;exitDx=0;exitDy=0;entryX=0;entryY=0.5;entryDx=0;entryDy=0;" edge="1" parent="1" source="f1EfRb5JokxbB5pJXTIM-323" target="f1EfRb5JokxbB5pJXTIM-242">
          <mxGeometry relative="1" as="geometry">
            <Array as="points">
              <mxPoint x="-50" y="480" />
            </Array>
          </mxGeometry>
        </mxCell>
        <mxCell id="f1EfRb5JokxbB5pJXTIM-336" style="edgeStyle=elbowEdgeStyle;rounded=0;orthogonalLoop=1;jettySize=auto;html=1;exitDx=0;exitDy=0;entryX=0;entryY=0.5;entryDx=0;entryDy=0;" edge="1" parent="1" source="f1EfRb5JokxbB5pJXTIM-343" target="f1EfRb5JokxbB5pJXTIM-108">
          <mxGeometry relative="1" as="geometry">
            <Array as="points">
              <mxPoint x="550" y="490" />
            </Array>
          </mxGeometry>
        </mxCell>
        <mxCell id="f1EfRb5JokxbB5pJXTIM-76" value="BUTTON4" style="shape=offPageConnector;whiteSpace=wrap;html=1;direction=north;" vertex="1" parent="1">
          <mxGeometry x="-480" y="280" width="80" height="40" as="geometry" />
        </mxCell>
        <mxCell id="f1EfRb5JokxbB5pJXTIM-96" style="edgeStyle=elbowEdgeStyle;rounded=0;orthogonalLoop=1;jettySize=auto;html=1;exitX=1;exitY=0.5;exitDx=0;exitDy=0;entryX=0.5;entryY=1;entryDx=0;entryDy=0;" edge="1" parent="1" source="f1EfRb5JokxbB5pJXTIM-90" target="f1EfRb5JokxbB5pJXTIM-31">
          <mxGeometry relative="1" as="geometry" />
        </mxCell>
        <mxCell id="f1EfRb5JokxbB5pJXTIM-153" style="edgeStyle=elbowEdgeStyle;rounded=0;orthogonalLoop=1;jettySize=auto;html=1;entryX=0.5;entryY=0;entryDx=0;entryDy=0;" edge="1" parent="1" source="f1EfRb5JokxbB5pJXTIM-29" target="f1EfRb5JokxbB5pJXTIM-29">
          <mxGeometry relative="1" as="geometry" />
        </mxCell>
        <mxCell id="f1EfRb5JokxbB5pJXTIM-147" value="table_char" style="swimlane;whiteSpace=wrap;html=1;" vertex="1" parent="1">
          <mxGeometry x="-320" y="690" width="180" height="120" as="geometry" />
        </mxCell>
        <mxCell id="f1EfRb5JokxbB5pJXTIM-205" value="clk" style="rounded=0;whiteSpace=wrap;html=1;" vertex="1" parent="f1EfRb5JokxbB5pJXTIM-147">
          <mxGeometry x="10" y="30" width="80" height="40" as="geometry" />
        </mxCell>
        <mxCell id="f1EfRb5JokxbB5pJXTIM-206" value="[6:0] index" style="rounded=0;whiteSpace=wrap;html=1;" vertex="1" parent="f1EfRb5JokxbB5pJXTIM-147">
          <mxGeometry x="10" y="70" width="80" height="40" as="geometry" />
        </mxCell>
        <mxCell id="f1EfRb5JokxbB5pJXTIM-223" value="&lt;div style=&quot;font-family: Consolas, &amp;quot;Courier New&amp;quot;, monospace; font-size: 14px; line-height: 19px;&quot;&gt;&lt;span style=&quot;background-color: rgb(255, 255, 255);&quot;&gt;[6:0] text&lt;/span&gt;&lt;/div&gt;" style="rounded=0;whiteSpace=wrap;html=1;" vertex="1" parent="f1EfRb5JokxbB5pJXTIM-147">
          <mxGeometry x="100" y="30" width="80" height="40" as="geometry" />
        </mxCell>
        <mxCell id="f1EfRb5JokxbB5pJXTIM-377" style="edgeStyle=elbowEdgeStyle;rounded=0;orthogonalLoop=1;jettySize=auto;html=1;exitX=0;exitY=0;exitDx=0;exitDy=0;entryX=0;entryY=0.25;entryDx=0;entryDy=0;" edge="1" parent="f1EfRb5JokxbB5pJXTIM-147" source="f1EfRb5JokxbB5pJXTIM-223" target="f1EfRb5JokxbB5pJXTIM-223">
          <mxGeometry relative="1" as="geometry" />
        </mxCell>
        <mxCell id="f1EfRb5JokxbB5pJXTIM-75" value="button.v&lt;br&gt;" style="swimlane;whiteSpace=wrap;html=1;" vertex="1" parent="1">
          <mxGeometry x="-320" y="350" width="180" height="160" as="geometry" />
        </mxCell>
        <mxCell id="f1EfRb5JokxbB5pJXTIM-60" value="rst" style="rounded=0;whiteSpace=wrap;html=1;" vertex="1" parent="f1EfRb5JokxbB5pJXTIM-75">
          <mxGeometry x="9" y="70" width="81" height="40" as="geometry" />
        </mxCell>
        <mxCell id="f1EfRb5JokxbB5pJXTIM-59" value="clk" style="rounded=0;whiteSpace=wrap;html=1;" vertex="1" parent="f1EfRb5JokxbB5pJXTIM-75">
          <mxGeometry x="9" y="30" width="81" height="40" as="geometry" />
        </mxCell>
        <mxCell id="f1EfRb5JokxbB5pJXTIM-61" value="btn" style="rounded=0;whiteSpace=wrap;html=1;" vertex="1" parent="f1EfRb5JokxbB5pJXTIM-75">
          <mxGeometry x="9" y="110" width="81" height="40" as="geometry" />
        </mxCell>
        <mxCell id="f1EfRb5JokxbB5pJXTIM-86" value="&lt;div style=&quot;font-family: Consolas, &amp;quot;Courier New&amp;quot;, monospace; font-size: 14px; line-height: 19px;&quot;&gt;&lt;span style=&quot;background-color: rgb(255, 255, 255);&quot;&gt;debounced&lt;/span&gt;&lt;/div&gt;" style="rounded=0;whiteSpace=wrap;html=1;" vertex="1" parent="f1EfRb5JokxbB5pJXTIM-75">
          <mxGeometry x="100" y="30" width="80" height="40" as="geometry" />
        </mxCell>
        <mxCell id="f1EfRb5JokxbB5pJXTIM-417" style="edgeStyle=elbowEdgeStyle;rounded=0;orthogonalLoop=1;jettySize=auto;html=1;exitX=1;exitY=0.25;exitDx=0;exitDy=0;" edge="1" parent="1" source="f1EfRb5JokxbB5pJXTIM-101">
          <mxGeometry relative="1" as="geometry">
            <mxPoint x="1020.0000000000005" y="330" as="targetPoint" />
            <Array as="points">
              <mxPoint x="1110" y="390" />
            </Array>
          </mxGeometry>
        </mxCell>
        <mxCell id="f1EfRb5JokxbB5pJXTIM-101" value="controller.v" style="swimlane;whiteSpace=wrap;html=1;" vertex="1" parent="1">
          <mxGeometry x="600" y="410" width="180" height="320" as="geometry" />
        </mxCell>
        <mxCell id="f1EfRb5JokxbB5pJXTIM-102" value="clk" style="rounded=0;whiteSpace=wrap;html=1;" vertex="1" parent="f1EfRb5JokxbB5pJXTIM-101">
          <mxGeometry x="10" y="30" width="80" height="40" as="geometry" />
        </mxCell>
        <mxCell id="f1EfRb5JokxbB5pJXTIM-106" value="rst" style="rounded=0;whiteSpace=wrap;html=1;" vertex="1" parent="f1EfRb5JokxbB5pJXTIM-101">
          <mxGeometry x="10" y="70" width="80" height="40" as="geometry" />
        </mxCell>
        <mxCell id="f1EfRb5JokxbB5pJXTIM-108" value="button4" style="rounded=0;whiteSpace=wrap;html=1;" vertex="1" parent="f1EfRb5JokxbB5pJXTIM-101">
          <mxGeometry x="10" y="230" width="80" height="40" as="geometry" />
        </mxCell>
        <mxCell id="f1EfRb5JokxbB5pJXTIM-109" value="button2" style="rounded=0;whiteSpace=wrap;html=1;" vertex="1" parent="f1EfRb5JokxbB5pJXTIM-101">
          <mxGeometry x="10" y="150" width="80" height="40" as="geometry" />
        </mxCell>
        <mxCell id="f1EfRb5JokxbB5pJXTIM-110" value="button3" style="rounded=0;whiteSpace=wrap;html=1;" vertex="1" parent="f1EfRb5JokxbB5pJXTIM-101">
          <mxGeometry x="10" y="190" width="80" height="40" as="geometry" />
        </mxCell>
        <mxCell id="f1EfRb5JokxbB5pJXTIM-120" value="mode" style="rounded=0;whiteSpace=wrap;html=1;" vertex="1" parent="f1EfRb5JokxbB5pJXTIM-101">
          <mxGeometry x="10" y="110" width="80" height="40" as="geometry" />
        </mxCell>
        <mxCell id="f1EfRb5JokxbB5pJXTIM-140" value="[6:0] single_led_sp" style="rounded=0;whiteSpace=wrap;html=1;" vertex="1" parent="f1EfRb5JokxbB5pJXTIM-101">
          <mxGeometry x="100" y="110" width="80" height="40" as="geometry" />
        </mxCell>
        <mxCell id="f1EfRb5JokxbB5pJXTIM-142" value="[6:0] led7seg" style="rounded=0;whiteSpace=wrap;html=1;" vertex="1" parent="f1EfRb5JokxbB5pJXTIM-101">
          <mxGeometry x="100" y="70" width="80" height="40" as="geometry" />
        </mxCell>
        <mxCell id="f1EfRb5JokxbB5pJXTIM-143" value="[6:0] trans" style="rounded=0;whiteSpace=wrap;html=1;" vertex="1" parent="f1EfRb5JokxbB5pJXTIM-101">
          <mxGeometry x="100" y="30" width="80" height="40" as="geometry" />
        </mxCell>
        <mxCell id="f1EfRb5JokxbB5pJXTIM-239" value="[6:0] switch" style="rounded=0;whiteSpace=wrap;html=1;" vertex="1" parent="f1EfRb5JokxbB5pJXTIM-101">
          <mxGeometry x="10" y="270" width="80" height="40" as="geometry" />
        </mxCell>
        <mxCell id="f1EfRb5JokxbB5pJXTIM-216" style="edgeStyle=elbowEdgeStyle;rounded=0;orthogonalLoop=1;jettySize=auto;html=1;exitX=1;exitY=0.5;exitDx=0;exitDy=0;entryX=0;entryY=1;entryDx=0;entryDy=0;" edge="1" parent="1" source="f1EfRb5JokxbB5pJXTIM-86" target="f1EfRb5JokxbB5pJXTIM-72">
          <mxGeometry relative="1" as="geometry">
            <mxPoint x="830" y="380" as="targetPoint" />
            <Array as="points">
              <mxPoint x="840" y="400" />
            </Array>
          </mxGeometry>
        </mxCell>
        <mxCell id="f1EfRb5JokxbB5pJXTIM-149" value="effect(x).v" style="swimlane;whiteSpace=wrap;html=1;" vertex="1" parent="1">
          <mxGeometry x="310" y="410" width="180" height="240" as="geometry" />
        </mxCell>
        <mxCell id="f1EfRb5JokxbB5pJXTIM-160" value="clk" style="rounded=0;whiteSpace=wrap;html=1;" vertex="1" parent="f1EfRb5JokxbB5pJXTIM-149">
          <mxGeometry x="10" y="30" width="80" height="40" as="geometry" />
        </mxCell>
        <mxCell id="f1EfRb5JokxbB5pJXTIM-161" value="[2:0] enable" style="rounded=0;whiteSpace=wrap;html=1;" vertex="1" parent="f1EfRb5JokxbB5pJXTIM-149">
          <mxGeometry x="10" y="70" width="80" height="40" as="geometry" />
        </mxCell>
        <mxCell id="f1EfRb5JokxbB5pJXTIM-162" value="[1:0] frenquecy" style="rounded=0;whiteSpace=wrap;html=1;" vertex="1" parent="f1EfRb5JokxbB5pJXTIM-149">
          <mxGeometry x="10" y="110" width="80" height="40" as="geometry" />
        </mxCell>
        <mxCell id="f1EfRb5JokxbB5pJXTIM-163" value="[3:0] check" style="rounded=0;whiteSpace=wrap;html=1;" vertex="1" parent="f1EfRb5JokxbB5pJXTIM-149">
          <mxGeometry x="10" y="150" width="80" height="40" as="geometry" />
        </mxCell>
        <mxCell id="f1EfRb5JokxbB5pJXTIM-164" value="[6:0] text_index" style="rounded=0;whiteSpace=wrap;html=1;" vertex="1" parent="f1EfRb5JokxbB5pJXTIM-149">
          <mxGeometry x="10" y="190" width="80" height="40" as="geometry" />
        </mxCell>
        <mxCell id="f1EfRb5JokxbB5pJXTIM-165" value="[6:0] trans" style="rounded=0;whiteSpace=wrap;html=1;" vertex="1" parent="f1EfRb5JokxbB5pJXTIM-149">
          <mxGeometry x="100" y="30" width="80" height="40" as="geometry" />
        </mxCell>
        <mxCell id="f1EfRb5JokxbB5pJXTIM-166" value="[6:0] led7seg" style="rounded=0;whiteSpace=wrap;html=1;" vertex="1" parent="f1EfRb5JokxbB5pJXTIM-149">
          <mxGeometry x="100" y="70" width="80" height="40" as="geometry" />
        </mxCell>
        <mxCell id="f1EfRb5JokxbB5pJXTIM-224" style="edgeStyle=elbowEdgeStyle;rounded=0;orthogonalLoop=1;jettySize=auto;html=1;exitX=0.75;exitY=0;exitDx=0;exitDy=0;" edge="1" parent="1" source="f1EfRb5JokxbB5pJXTIM-101" target="f1EfRb5JokxbB5pJXTIM-101">
          <mxGeometry relative="1" as="geometry" />
        </mxCell>
        <mxCell id="f1EfRb5JokxbB5pJXTIM-226" value="setting.v" style="swimlane;whiteSpace=wrap;html=1;" vertex="1" parent="1">
          <mxGeometry y="410" width="180" height="280" as="geometry" />
        </mxCell>
        <mxCell id="f1EfRb5JokxbB5pJXTIM-227" value="clk" style="rounded=0;whiteSpace=wrap;html=1;" vertex="1" parent="f1EfRb5JokxbB5pJXTIM-226">
          <mxGeometry x="10" y="30" width="80" height="40" as="geometry" />
        </mxCell>
        <mxCell id="f1EfRb5JokxbB5pJXTIM-228" value="rst" style="rounded=0;whiteSpace=wrap;html=1;" vertex="1" parent="f1EfRb5JokxbB5pJXTIM-226">
          <mxGeometry x="10" y="70" width="80" height="40" as="geometry" />
        </mxCell>
        <mxCell id="f1EfRb5JokxbB5pJXTIM-229" value="mode" style="rounded=0;whiteSpace=wrap;html=1;" vertex="1" parent="f1EfRb5JokxbB5pJXTIM-226">
          <mxGeometry x="10" y="110" width="80" height="40" as="geometry" />
        </mxCell>
        <mxCell id="f1EfRb5JokxbB5pJXTIM-240" value="button2" style="rounded=0;whiteSpace=wrap;html=1;" vertex="1" parent="f1EfRb5JokxbB5pJXTIM-226">
          <mxGeometry x="10" y="150" width="80" height="40" as="geometry" />
        </mxCell>
        <mxCell id="f1EfRb5JokxbB5pJXTIM-241" value="button3" style="rounded=0;whiteSpace=wrap;html=1;" vertex="1" parent="f1EfRb5JokxbB5pJXTIM-226">
          <mxGeometry x="10" y="190" width="80" height="40" as="geometry" />
        </mxCell>
        <mxCell id="f1EfRb5JokxbB5pJXTIM-242" value="button4" style="rounded=0;whiteSpace=wrap;html=1;" vertex="1" parent="f1EfRb5JokxbB5pJXTIM-226">
          <mxGeometry x="10" y="230" width="80" height="40" as="geometry" />
        </mxCell>
        <mxCell id="f1EfRb5JokxbB5pJXTIM-243" value="[6:0] trans" style="rounded=0;whiteSpace=wrap;html=1;" vertex="1" parent="f1EfRb5JokxbB5pJXTIM-226">
          <mxGeometry x="100" y="30" width="80" height="40" as="geometry" />
        </mxCell>
        <mxCell id="f1EfRb5JokxbB5pJXTIM-244" value="[6:0] led7seg" style="rounded=0;whiteSpace=wrap;html=1;" vertex="1" parent="f1EfRb5JokxbB5pJXTIM-226">
          <mxGeometry x="100" y="70" width="80" height="40" as="geometry" />
        </mxCell>
        <mxCell id="f1EfRb5JokxbB5pJXTIM-245" value="[6:0] single_led_sp" style="rounded=0;whiteSpace=wrap;html=1;" vertex="1" parent="f1EfRb5JokxbB5pJXTIM-226">
          <mxGeometry x="100" y="110" width="80" height="40" as="geometry" />
        </mxCell>
        <mxCell id="f1EfRb5JokxbB5pJXTIM-358" value="[3:0] check_index" style="rounded=0;whiteSpace=wrap;html=1;" vertex="1" parent="f1EfRb5JokxbB5pJXTIM-226">
          <mxGeometry x="100" y="150" width="80" height="40" as="geometry" />
        </mxCell>
        <mxCell id="f1EfRb5JokxbB5pJXTIM-359" value="[6:0] index" style="rounded=0;whiteSpace=wrap;html=1;" vertex="1" parent="f1EfRb5JokxbB5pJXTIM-226">
          <mxGeometry x="100" y="190" width="80" height="40" as="geometry" />
        </mxCell>
        <mxCell id="f1EfRb5JokxbB5pJXTIM-231" value="switch.v" style="swimlane;whiteSpace=wrap;html=1;" vertex="1" parent="1">
          <mxGeometry x="-320" y="520" width="180" height="160" as="geometry" />
        </mxCell>
        <mxCell id="f1EfRb5JokxbB5pJXTIM-232" value="rst" style="rounded=0;whiteSpace=wrap;html=1;" vertex="1" parent="f1EfRb5JokxbB5pJXTIM-231">
          <mxGeometry x="9" y="65" width="81" height="40" as="geometry" />
        </mxCell>
        <mxCell id="f1EfRb5JokxbB5pJXTIM-233" value="clk" style="rounded=0;whiteSpace=wrap;html=1;" vertex="1" parent="f1EfRb5JokxbB5pJXTIM-231">
          <mxGeometry x="9" y="30" width="81" height="40" as="geometry" />
        </mxCell>
        <mxCell id="f1EfRb5JokxbB5pJXTIM-234" value="switch" style="rounded=0;whiteSpace=wrap;html=1;" vertex="1" parent="f1EfRb5JokxbB5pJXTIM-231">
          <mxGeometry x="9" y="105" width="81" height="40" as="geometry" />
        </mxCell>
        <mxCell id="f1EfRb5JokxbB5pJXTIM-235" value="&lt;div style=&quot;font-family: Consolas, &amp;quot;Courier New&amp;quot;, monospace; font-size: 14px; line-height: 19px;&quot;&gt;&lt;span style=&quot;background-color: rgb(255, 255, 255);&quot;&gt;debounced&lt;/span&gt;&lt;/div&gt;" style="rounded=0;whiteSpace=wrap;html=1;" vertex="1" parent="f1EfRb5JokxbB5pJXTIM-231">
          <mxGeometry x="100" y="30" width="80" height="40" as="geometry" />
        </mxCell>
        <mxCell id="f1EfRb5JokxbB5pJXTIM-310" value="" style="shape=waypoint;sketch=0;fillStyle=solid;size=6;pointerEvents=1;points=[];fillColor=none;resizable=0;rotatable=0;perimeter=centerPerimeter;snapToPoint=1;" vertex="1" parent="1">
          <mxGeometry x="-340" y="90" width="20" height="20" as="geometry" />
        </mxCell>
        <mxCell id="f1EfRb5JokxbB5pJXTIM-312" value="" style="shape=waypoint;sketch=0;fillStyle=solid;size=6;pointerEvents=1;points=[];fillColor=none;resizable=0;rotatable=0;perimeter=centerPerimeter;snapToPoint=1;" vertex="1" parent="1">
          <mxGeometry x="-350" y="130" width="20" height="20" as="geometry" />
        </mxCell>
        <mxCell id="f1EfRb5JokxbB5pJXTIM-315" value="" style="shape=waypoint;sketch=0;fillStyle=solid;size=6;pointerEvents=1;points=[];fillColor=none;resizable=0;rotatable=0;perimeter=centerPerimeter;snapToPoint=1;" vertex="1" parent="1">
          <mxGeometry x="-370" y="250" width="20" height="20" as="geometry" />
        </mxCell>
        <mxCell id="f1EfRb5JokxbB5pJXTIM-316" value="" style="shape=waypoint;sketch=0;fillStyle=solid;size=6;pointerEvents=1;points=[];fillColor=none;resizable=0;rotatable=0;perimeter=centerPerimeter;snapToPoint=1;" vertex="1" parent="1">
          <mxGeometry x="-380" y="290" width="20" height="20" as="geometry" />
        </mxCell>
        <mxCell id="f1EfRb5JokxbB5pJXTIM-317" value="" style="shape=waypoint;sketch=0;fillStyle=solid;size=6;pointerEvents=1;points=[];fillColor=none;resizable=0;rotatable=0;perimeter=centerPerimeter;snapToPoint=1;" vertex="1" parent="1">
          <mxGeometry x="-20" y="90" width="20" height="20" as="geometry" />
        </mxCell>
        <mxCell id="f1EfRb5JokxbB5pJXTIM-318" value="" style="shape=waypoint;sketch=0;fillStyle=solid;size=6;pointerEvents=1;points=[];fillColor=none;resizable=0;rotatable=0;perimeter=centerPerimeter;snapToPoint=1;" vertex="1" parent="1">
          <mxGeometry x="-30" y="130" width="20" height="20" as="geometry" />
        </mxCell>
        <mxCell id="f1EfRb5JokxbB5pJXTIM-319" value="" style="shape=waypoint;sketch=0;fillStyle=solid;size=6;pointerEvents=1;points=[];fillColor=none;resizable=0;rotatable=0;perimeter=centerPerimeter;snapToPoint=1;" vertex="1" parent="1">
          <mxGeometry x="-40" y="210" width="20" height="20" as="geometry" />
        </mxCell>
        <mxCell id="f1EfRb5JokxbB5pJXTIM-321" value="" style="shape=waypoint;sketch=0;fillStyle=solid;size=6;pointerEvents=1;points=[];fillColor=none;resizable=0;rotatable=0;perimeter=centerPerimeter;snapToPoint=1;" vertex="1" parent="1">
          <mxGeometry x="-50" y="250" width="20" height="20" as="geometry" />
        </mxCell>
        <mxCell id="f1EfRb5JokxbB5pJXTIM-323" value="" style="shape=waypoint;sketch=0;fillStyle=solid;size=6;pointerEvents=1;points=[];fillColor=none;resizable=0;rotatable=0;perimeter=centerPerimeter;snapToPoint=1;" vertex="1" parent="1">
          <mxGeometry x="-60" y="290" width="20" height="20" as="geometry" />
        </mxCell>
        <mxCell id="f1EfRb5JokxbB5pJXTIM-328" value="" style="shape=waypoint;sketch=0;fillStyle=solid;size=6;pointerEvents=1;points=[];fillColor=none;resizable=0;rotatable=0;perimeter=centerPerimeter;snapToPoint=1;" vertex="1" parent="1">
          <mxGeometry x="290" y="90" width="20" height="20" as="geometry" />
        </mxCell>
        <mxCell id="f1EfRb5JokxbB5pJXTIM-330" value="" style="shape=waypoint;sketch=0;fillStyle=solid;size=6;pointerEvents=1;points=[];fillColor=none;resizable=0;rotatable=0;perimeter=centerPerimeter;snapToPoint=1;" vertex="1" parent="1">
          <mxGeometry x="580" y="90" width="20" height="20" as="geometry" />
        </mxCell>
        <mxCell id="f1EfRb5JokxbB5pJXTIM-333" value="" style="shape=waypoint;sketch=0;fillStyle=solid;size=6;pointerEvents=1;points=[];fillColor=none;resizable=0;rotatable=0;perimeter=centerPerimeter;snapToPoint=1;" vertex="1" parent="1">
          <mxGeometry x="570" y="130" width="20" height="20" as="geometry" />
        </mxCell>
        <mxCell id="f1EfRb5JokxbB5pJXTIM-339" value="" style="shape=waypoint;sketch=0;fillStyle=solid;size=6;pointerEvents=1;points=[];fillColor=none;resizable=0;rotatable=0;perimeter=centerPerimeter;snapToPoint=1;" vertex="1" parent="1">
          <mxGeometry x="560" y="210" width="20" height="20" as="geometry" />
        </mxCell>
        <mxCell id="f1EfRb5JokxbB5pJXTIM-341" value="" style="shape=waypoint;sketch=0;fillStyle=solid;size=6;pointerEvents=1;points=[];fillColor=none;resizable=0;rotatable=0;perimeter=centerPerimeter;snapToPoint=1;" vertex="1" parent="1">
          <mxGeometry x="550" y="250" width="20" height="20" as="geometry" />
        </mxCell>
        <mxCell id="f1EfRb5JokxbB5pJXTIM-343" value="" style="shape=waypoint;sketch=0;fillStyle=solid;size=6;pointerEvents=1;points=[];fillColor=none;resizable=0;rotatable=0;perimeter=centerPerimeter;snapToPoint=1;" vertex="1" parent="1">
          <mxGeometry x="540" y="290" width="20" height="20" as="geometry" />
        </mxCell>
        <mxCell id="f1EfRb5JokxbB5pJXTIM-345" value="" style="shape=waypoint;sketch=0;fillStyle=solid;size=6;pointerEvents=1;points=[];fillColor=none;resizable=0;rotatable=0;perimeter=centerPerimeter;snapToPoint=1;" vertex="1" parent="1">
          <mxGeometry x="530" y="330" width="20" height="20" as="geometry" />
        </mxCell>
        <mxCell id="f1EfRb5JokxbB5pJXTIM-347" value="" style="edgeStyle=segmentEdgeStyle;endArrow=classic;html=1;curved=0;rounded=0;endSize=8;startSize=8;exitX=1;exitY=0.5;exitDx=0;exitDy=0;entryX=0.25;entryY=1;entryDx=0;entryDy=0;" edge="1" parent="1" source="f1EfRb5JokxbB5pJXTIM-235" target="f1EfRb5JokxbB5pJXTIM-72">
          <mxGeometry width="50" height="50" relative="1" as="geometry">
            <mxPoint x="-120" y="490" as="sourcePoint" />
            <mxPoint x="920" y="300" as="targetPoint" />
            <Array as="points">
              <mxPoint x="-60" y="570" />
              <mxPoint x="-60" y="800" />
              <mxPoint x="885" y="800" />
            </Array>
          </mxGeometry>
        </mxCell>
        <mxCell id="f1EfRb5JokxbB5pJXTIM-350" value="" style="edgeStyle=segmentEdgeStyle;endArrow=classic;html=1;curved=0;rounded=0;endSize=8;startSize=8;exitDx=0;exitDy=0;entryX=0;entryY=1;entryDx=0;entryDy=0;" edge="1" parent="1" source="f1EfRb5JokxbB5pJXTIM-353" target="f1EfRb5JokxbB5pJXTIM-101">
          <mxGeometry width="50" height="50" relative="1" as="geometry">
            <mxPoint x="120" y="720" as="sourcePoint" />
            <mxPoint x="170" y="670" as="targetPoint" />
            <Array as="points">
              <mxPoint x="600" y="800" />
            </Array>
          </mxGeometry>
        </mxCell>
        <mxCell id="f1EfRb5JokxbB5pJXTIM-353" value="" style="shape=waypoint;sketch=0;fillStyle=solid;size=6;pointerEvents=1;points=[];fillColor=none;resizable=0;rotatable=0;perimeter=centerPerimeter;snapToPoint=1;" vertex="1" parent="1">
          <mxGeometry x="590" y="790" width="20" height="20" as="geometry" />
        </mxCell>
        <mxCell id="f1EfRb5JokxbB5pJXTIM-354" value="" style="edgeStyle=segmentEdgeStyle;endArrow=classic;html=1;curved=0;rounded=0;endSize=8;startSize=8;exitX=0.5;exitY=1;exitDx=0;exitDy=0;entryX=0;entryY=0.5;entryDx=0;entryDy=0;" edge="1" parent="1" source="f1EfRb5JokxbB5pJXTIM-72" target="f1EfRb5JokxbB5pJXTIM-229">
          <mxGeometry width="50" height="50" relative="1" as="geometry">
            <mxPoint x="810" y="600" as="sourcePoint" />
            <mxPoint x="280" y="740" as="targetPoint" />
            <Array as="points">
              <mxPoint x="930" y="780" />
              <mxPoint x="-20" y="780" />
              <mxPoint x="-20" y="540" />
            </Array>
          </mxGeometry>
        </mxCell>
        <mxCell id="f1EfRb5JokxbB5pJXTIM-355" value="" style="edgeStyle=segmentEdgeStyle;endArrow=classic;html=1;curved=0;rounded=0;endSize=8;startSize=8;entryX=0;entryY=0.5;entryDx=0;entryDy=0;" edge="1" parent="1" source="f1EfRb5JokxbB5pJXTIM-357" target="f1EfRb5JokxbB5pJXTIM-120">
          <mxGeometry width="50" height="50" relative="1" as="geometry">
            <mxPoint x="931.8714021381579" y="370" as="sourcePoint" />
            <mxPoint x="370" y="550" as="targetPoint" />
            <Array as="points">
              <mxPoint x="580" y="540" />
            </Array>
          </mxGeometry>
        </mxCell>
        <mxCell id="f1EfRb5JokxbB5pJXTIM-357" value="" style="shape=waypoint;sketch=0;fillStyle=solid;size=6;pointerEvents=1;points=[];fillColor=none;resizable=0;rotatable=0;perimeter=centerPerimeter;snapToPoint=1;" vertex="1" parent="1">
          <mxGeometry x="570" y="770" width="20" height="20" as="geometry" />
        </mxCell>
        <mxCell id="f1EfRb5JokxbB5pJXTIM-364" value="" style="edgeStyle=segmentEdgeStyle;endArrow=classic;html=1;curved=0;rounded=0;endSize=8;startSize=8;entryX=0;entryY=0.5;entryDx=0;entryDy=0;exitX=0.75;exitY=1;exitDx=0;exitDy=0;" edge="1" parent="1" source="f1EfRb5JokxbB5pJXTIM-72" target="f1EfRb5JokxbB5pJXTIM-161">
          <mxGeometry width="50" height="50" relative="1" as="geometry">
            <mxPoint x="410" y="620" as="sourcePoint" />
            <mxPoint x="460" y="570" as="targetPoint" />
            <Array as="points">
              <mxPoint x="970" y="370" />
              <mxPoint x="970" y="820" />
              <mxPoint x="290" y="820" />
              <mxPoint x="290" y="500" />
            </Array>
          </mxGeometry>
        </mxCell>
        <mxCell id="f1EfRb5JokxbB5pJXTIM-370" style="edgeStyle=elbowEdgeStyle;rounded=0;orthogonalLoop=1;jettySize=auto;html=1;entryX=0;entryY=1;entryDx=0;entryDy=0;" edge="1" parent="1" target="f1EfRb5JokxbB5pJXTIM-149">
          <mxGeometry relative="1" as="geometry">
            <mxPoint x="-140" y="740" as="sourcePoint" />
            <Array as="points">
              <mxPoint x="310" y="720" />
            </Array>
          </mxGeometry>
        </mxCell>
        <mxCell id="f1EfRb5JokxbB5pJXTIM-372" value="" style="edgeStyle=segmentEdgeStyle;endArrow=classic;html=1;curved=0;rounded=0;endSize=8;startSize=8;exitX=0.5;exitY=1;exitDx=0;exitDy=0;entryX=0;entryY=0.5;entryDx=0;entryDy=0;" edge="1" parent="1" source="f1EfRb5JokxbB5pJXTIM-226" target="f1EfRb5JokxbB5pJXTIM-206">
          <mxGeometry width="50" height="50" relative="1" as="geometry">
            <mxPoint x="170" y="620" as="sourcePoint" />
            <mxPoint x="220" y="570" as="targetPoint" />
            <Array as="points">
              <mxPoint x="90" y="880" />
              <mxPoint x="-360" y="880" />
              <mxPoint x="-360" y="780" />
            </Array>
          </mxGeometry>
        </mxCell>
        <mxCell id="f1EfRb5JokxbB5pJXTIM-313" value="" style="shape=waypoint;sketch=0;fillStyle=solid;size=6;pointerEvents=1;points=[];fillColor=none;resizable=0;rotatable=0;perimeter=centerPerimeter;snapToPoint=1;" vertex="1" parent="1">
          <mxGeometry x="-360" y="170" width="20" height="20" as="geometry" />
        </mxCell>
        <mxCell id="f1EfRb5JokxbB5pJXTIM-368" value="" style="shape=waypoint;sketch=0;fillStyle=solid;size=6;pointerEvents=1;points=[];fillColor=none;resizable=0;rotatable=0;perimeter=centerPerimeter;snapToPoint=1;" vertex="1" parent="1">
          <mxGeometry x="-340" y="390" width="20" height="20" as="geometry" />
        </mxCell>
        <mxCell id="f1EfRb5JokxbB5pJXTIM-380" value="" style="shape=waypoint;sketch=0;fillStyle=solid;size=6;pointerEvents=1;points=[];fillColor=none;resizable=0;rotatable=0;perimeter=centerPerimeter;snapToPoint=1;" vertex="1" parent="1">
          <mxGeometry x="-610" y="595" width="20" height="20" as="geometry" />
        </mxCell>
        <mxCell id="f1EfRb5JokxbB5pJXTIM-384" value="" style="shape=waypoint;sketch=0;fillStyle=solid;size=6;pointerEvents=1;points=[];fillColor=none;resizable=0;rotatable=0;perimeter=centerPerimeter;snapToPoint=1;" vertex="1" parent="1">
          <mxGeometry x="-350" y="430" width="20" height="20" as="geometry" />
        </mxCell>
        <mxCell id="f1EfRb5JokxbB5pJXTIM-386" value="" style="shape=waypoint;sketch=0;fillStyle=solid;size=6;pointerEvents=1;points=[];fillColor=none;resizable=0;rotatable=0;perimeter=centerPerimeter;snapToPoint=1;" vertex="1" parent="1">
          <mxGeometry x="-390" y="330" width="20" height="20" as="geometry" />
        </mxCell>
        <mxCell id="f1EfRb5JokxbB5pJXTIM-388" value="" style="shape=waypoint;sketch=0;fillStyle=solid;size=6;pointerEvents=1;points=[];fillColor=none;resizable=0;rotatable=0;perimeter=centerPerimeter;snapToPoint=1;" vertex="1" parent="1">
          <mxGeometry x="-340" y="560" width="20" height="20" as="geometry" />
        </mxCell>
        <mxCell id="f1EfRb5JokxbB5pJXTIM-390" value="" style="edgeStyle=segmentEdgeStyle;endArrow=classic;html=1;curved=0;rounded=0;endSize=8;startSize=8;entryX=0;entryY=0.5;entryDx=0;entryDy=0;exitX=0.75;exitY=1;exitDx=0;exitDy=0;" edge="1" parent="1" source="f1EfRb5JokxbB5pJXTIM-101" target="f1EfRb5JokxbB5pJXTIM-162">
          <mxGeometry width="50" height="50" relative="1" as="geometry">
            <mxPoint x="630" y="700" as="sourcePoint" />
            <mxPoint x="680" y="650" as="targetPoint" />
            <Array as="points">
              <mxPoint x="735" y="880" />
              <mxPoint x="280" y="880" />
              <mxPoint x="280" y="540" />
            </Array>
          </mxGeometry>
        </mxCell>
        <mxCell id="f1EfRb5JokxbB5pJXTIM-391" value="" style="edgeStyle=segmentEdgeStyle;endArrow=classic;html=1;curved=0;rounded=0;endSize=8;startSize=8;exitX=1;exitY=1;exitDx=0;exitDy=0;entryX=0;entryY=0.5;entryDx=0;entryDy=0;" edge="1" parent="1" source="f1EfRb5JokxbB5pJXTIM-101" target="f1EfRb5JokxbB5pJXTIM-163">
          <mxGeometry width="50" height="50" relative="1" as="geometry">
            <mxPoint x="630" y="700" as="sourcePoint" />
            <mxPoint x="680" y="650" as="targetPoint" />
            <Array as="points">
              <mxPoint x="780" y="920" />
              <mxPoint x="270" y="920" />
              <mxPoint x="270" y="580" />
            </Array>
          </mxGeometry>
        </mxCell>
        <mxCell id="f1EfRb5JokxbB5pJXTIM-392" style="edgeStyle=elbowEdgeStyle;rounded=0;orthogonalLoop=1;jettySize=auto;html=1;exitX=1;exitY=0.5;exitDx=0;exitDy=0;entryX=1;entryY=1;entryDx=0;entryDy=0;" edge="1" parent="1" source="f1EfRb5JokxbB5pJXTIM-140" target="f1EfRb5JokxbB5pJXTIM-72">
          <mxGeometry relative="1" as="geometry">
            <Array as="points">
              <mxPoint x="1020" y="510" />
            </Array>
          </mxGeometry>
        </mxCell>
        <mxCell id="f1EfRb5JokxbB5pJXTIM-393" value="" style="edgeStyle=segmentEdgeStyle;endArrow=classic;html=1;curved=0;rounded=0;endSize=8;startSize=8;exitX=1;exitY=0.5;exitDx=0;exitDy=0;entryX=0.25;entryY=1;entryDx=0;entryDy=0;" edge="1" parent="1" source="f1EfRb5JokxbB5pJXTIM-358" target="f1EfRb5JokxbB5pJXTIM-101">
          <mxGeometry width="50" height="50" relative="1" as="geometry">
            <mxPoint x="400" y="600" as="sourcePoint" />
            <mxPoint x="450" y="550" as="targetPoint" />
            <Array as="points">
              <mxPoint x="200" y="580" />
              <mxPoint x="200" y="840" />
              <mxPoint x="645" y="840" />
            </Array>
          </mxGeometry>
        </mxCell>
        <mxCell id="f1EfRb5JokxbB5pJXTIM-394" value="" style="edgeStyle=segmentEdgeStyle;endArrow=classic;html=1;curved=0;rounded=0;endSize=8;startSize=8;exitX=1;exitY=0.75;exitDx=0;exitDy=0;entryX=0.5;entryY=1;entryDx=0;entryDy=0;" edge="1" parent="1" source="f1EfRb5JokxbB5pJXTIM-226" target="f1EfRb5JokxbB5pJXTIM-101">
          <mxGeometry width="50" height="50" relative="1" as="geometry">
            <mxPoint x="130" y="600" as="sourcePoint" />
            <mxPoint x="180" y="550" as="targetPoint" />
            <Array as="points">
              <mxPoint x="190" y="620" />
              <mxPoint x="190" y="900" />
              <mxPoint x="690" y="900" />
            </Array>
          </mxGeometry>
        </mxCell>
        <mxCell id="f1EfRb5JokxbB5pJXTIM-395" value="" style="edgeStyle=segmentEdgeStyle;endArrow=classic;html=1;curved=0;rounded=0;endSize=8;startSize=8;exitX=1;exitY=0.5;exitDx=0;exitDy=0;entryX=1;entryY=0.75;entryDx=0;entryDy=0;" edge="1" parent="1" source="f1EfRb5JokxbB5pJXTIM-243" target="f1EfRb5JokxbB5pJXTIM-101">
          <mxGeometry width="50" height="50" relative="1" as="geometry">
            <mxPoint x="210" y="600" as="sourcePoint" />
            <mxPoint x="799.3567537006579" y="680" as="targetPoint" />
            <Array as="points">
              <mxPoint x="220" y="460" />
              <mxPoint x="220" y="940" />
              <mxPoint x="820" y="940" />
              <mxPoint x="820" y="650" />
            </Array>
          </mxGeometry>
        </mxCell>
        <mxCell id="f1EfRb5JokxbB5pJXTIM-396" value="" style="edgeStyle=segmentEdgeStyle;endArrow=classic;html=1;curved=0;rounded=0;endSize=8;startSize=8;exitDx=0;exitDy=0;" edge="1" parent="1" source="f1EfRb5JokxbB5pJXTIM-414">
          <mxGeometry width="50" height="50" relative="1" as="geometry">
            <mxPoint x="630" y="750" as="sourcePoint" />
            <mxPoint x="780" y="600" as="targetPoint" />
            <Array as="points">
              <mxPoint x="860" y="980" />
              <mxPoint x="860" y="600" />
            </Array>
          </mxGeometry>
        </mxCell>
        <mxCell id="f1EfRb5JokxbB5pJXTIM-407" value="" style="edgeStyle=segmentEdgeStyle;endArrow=classic;html=1;curved=0;rounded=0;endSize=8;startSize=8;exitDx=0;exitDy=0;entryX=1;entryY=0.75;entryDx=0;entryDy=0;" edge="1" parent="1" source="f1EfRb5JokxbB5pJXTIM-411" target="f1EfRb5JokxbB5pJXTIM-101">
          <mxGeometry width="50" height="50" relative="1" as="geometry">
            <mxPoint x="630" y="750" as="sourcePoint" />
            <mxPoint x="680" y="700" as="targetPoint" />
            <Array as="points">
              <mxPoint x="520" y="940" />
              <mxPoint x="820" y="940" />
              <mxPoint x="820" y="650" />
            </Array>
          </mxGeometry>
        </mxCell>
        <mxCell id="f1EfRb5JokxbB5pJXTIM-410" value="" style="edgeStyle=segmentEdgeStyle;endArrow=classic;html=1;curved=0;rounded=0;endSize=8;startSize=8;exitX=1;exitY=0.5;exitDx=0;exitDy=0;entryDx=0;entryDy=0;" edge="1" parent="1" source="f1EfRb5JokxbB5pJXTIM-165" target="f1EfRb5JokxbB5pJXTIM-411">
          <mxGeometry width="50" height="50" relative="1" as="geometry">
            <mxPoint x="490" y="460" as="sourcePoint" />
            <mxPoint x="780" y="650" as="targetPoint" />
            <Array as="points">
              <mxPoint x="520" y="460" />
            </Array>
          </mxGeometry>
        </mxCell>
        <mxCell id="f1EfRb5JokxbB5pJXTIM-411" value="" style="shape=waypoint;sketch=0;fillStyle=solid;size=6;pointerEvents=1;points=[];fillColor=none;resizable=0;rotatable=0;perimeter=centerPerimeter;snapToPoint=1;" vertex="1" parent="1">
          <mxGeometry x="510" y="930" width="20" height="20" as="geometry" />
        </mxCell>
        <mxCell id="f1EfRb5JokxbB5pJXTIM-413" value="" style="edgeStyle=segmentEdgeStyle;endArrow=classic;html=1;curved=0;rounded=0;endSize=8;startSize=8;exitX=1;exitY=0.5;exitDx=0;exitDy=0;" edge="1" parent="1" source="f1EfRb5JokxbB5pJXTIM-244" target="f1EfRb5JokxbB5pJXTIM-414">
          <mxGeometry width="50" height="50" relative="1" as="geometry">
            <mxPoint x="180" y="500" as="sourcePoint" />
            <mxPoint x="780" y="600" as="targetPoint" />
            <Array as="points">
              <mxPoint x="210" y="500" />
              <mxPoint x="210" y="980" />
            </Array>
          </mxGeometry>
        </mxCell>
        <mxCell id="f1EfRb5JokxbB5pJXTIM-412" style="edgeStyle=elbowEdgeStyle;rounded=0;orthogonalLoop=1;jettySize=auto;html=1;exitDx=0;exitDy=0;" edge="1" parent="1" source="f1EfRb5JokxbB5pJXTIM-414">
          <mxGeometry relative="1" as="geometry">
            <mxPoint x="500.47368421052624" y="980" as="targetPoint" />
            <mxPoint x="500" y="500" as="sourcePoint" />
            <Array as="points">
              <mxPoint x="510" y="740" />
            </Array>
          </mxGeometry>
        </mxCell>
        <mxCell id="f1EfRb5JokxbB5pJXTIM-415" value="" style="edgeStyle=elbowEdgeStyle;rounded=0;orthogonalLoop=1;jettySize=auto;html=1;exitX=1;exitY=0.5;exitDx=0;exitDy=0;" edge="1" parent="1" source="f1EfRb5JokxbB5pJXTIM-166">
          <mxGeometry relative="1" as="geometry">
            <mxPoint x="505" y="980" as="targetPoint" />
            <mxPoint x="495" y="500" as="sourcePoint" />
            <Array as="points" />
          </mxGeometry>
        </mxCell>
        <mxCell id="f1EfRb5JokxbB5pJXTIM-414" value="" style="shape=waypoint;sketch=0;fillStyle=solid;size=6;pointerEvents=1;points=[];fillColor=none;resizable=0;rotatable=0;perimeter=centerPerimeter;snapToPoint=1;" vertex="1" parent="1">
          <mxGeometry x="490" y="970" width="20" height="20" as="geometry" />
        </mxCell>
        <mxCell id="f1EfRb5JokxbB5pJXTIM-416" style="edgeStyle=elbowEdgeStyle;rounded=0;orthogonalLoop=1;jettySize=auto;html=1;exitX=1;exitY=0.5;exitDx=0;exitDy=0;entryX=1;entryY=0.75;entryDx=0;entryDy=0;" edge="1" parent="1" source="f1EfRb5JokxbB5pJXTIM-143" target="f1EfRb5JokxbB5pJXTIM-72">
          <mxGeometry relative="1" as="geometry">
            <Array as="points">
              <mxPoint x="1080" y="370" />
            </Array>
          </mxGeometry>
        </mxCell>
        <mxCell id="f1EfRb5JokxbB5pJXTIM-418" style="edgeStyle=elbowEdgeStyle;rounded=0;orthogonalLoop=1;jettySize=auto;html=1;exitX=1;exitY=0.5;exitDx=0;exitDy=0;entryX=0.5;entryY=1;entryDx=0;entryDy=0;" edge="1" parent="1" source="f1EfRb5JokxbB5pJXTIM-89" target="f1EfRb5JokxbB5pJXTIM-30">
          <mxGeometry relative="1" as="geometry" />
        </mxCell>
        <mxCell id="f1EfRb5JokxbB5pJXTIM-419" style="edgeStyle=elbowEdgeStyle;rounded=0;orthogonalLoop=1;jettySize=auto;html=1;exitX=1;exitY=0.5;exitDx=0;exitDy=0;" edge="1" parent="1" source="f1EfRb5JokxbB5pJXTIM-88" target="f1EfRb5JokxbB5pJXTIM-29">
          <mxGeometry relative="1" as="geometry" />
        </mxCell>
        <mxCell id="f1EfRb5JokxbB5pJXTIM-420" style="edgeStyle=elbowEdgeStyle;rounded=0;orthogonalLoop=1;jettySize=auto;html=1;exitX=1;exitY=0.5;exitDx=0;exitDy=0;entryX=0.5;entryY=1;entryDx=0;entryDy=0;" edge="1" parent="1" source="f1EfRb5JokxbB5pJXTIM-87" target="f1EfRb5JokxbB5pJXTIM-32">
          <mxGeometry relative="1" as="geometry" />
        </mxCell>
        <mxCell id="f1EfRb5JokxbB5pJXTIM-421" value="" style="edgeStyle=segmentEdgeStyle;endArrow=classic;html=1;curved=0;rounded=0;endSize=8;startSize=8;entryX=0;entryY=0.5;entryDx=0;entryDy=0;" edge="1" parent="1" target="f1EfRb5JokxbB5pJXTIM-164">
          <mxGeometry width="50" height="50" relative="1" as="geometry">
            <mxPoint x="760" y="730" as="sourcePoint" />
            <mxPoint x="360" y="670" as="targetPoint" />
            <Array as="points">
              <mxPoint x="760" y="860" />
              <mxPoint x="300" y="860" />
              <mxPoint x="300" y="620" />
            </Array>
          </mxGeometry>
        </mxCell>
      </root>
    </mxGraphModel>
  </diagram>
</mxfile>
